PathFileType	4	(X/Y/Z)	 s09c0303.trc
DataRate	CameraRate	NumFrames	NumMarkers	Units	OrigDataRate	OrigDataStartFrame	OrigNumFrames
200	200	5	50	mm	200	1001	2000
Frame#	Time	racr			lacr			c7			jug			rlel			rdr			llel			ldr			s2			lic			ric			lasi			rasi			rpsi			lpsi			rgt			lgt			rth1			rth2			rth3			rth4			rlfc			rmfc			rsh1			rsh2			rsh3			rsh4			rlmal			rmmal			rcal			rtoe			rmt5			lth1			lth2			lth4			lth3			llfc			lmfc			llmal			lmmal			lcal			lmt5			lsh1			lsh2			lsh3			lsh4			ltoe			SBIKE			LBIKE			RBIKE			
		X1	Y1	Z1	X2	Y2	Z2	X3	Y3	Z3	X4	Y4	Z4	X5	Y5	Z5	X6	Y6	Z6	X7	Y7	Z7	X8	Y8	Z8	X9	Y9	Z9	X10	Y10	Z10	X11	Y11	Z11	X12	Y12	Z12	X13	Y13	Z13	X14	Y14	Z14	X15	Y15	Z15	X16	Y16	Z16	X17	Y17	Z17	X18	Y18	Z18	X19	Y19	Z19	X20	Y20	Z20	X21	Y21	Z21	X22	Y22	Z22	X23	Y23	Z23	X24	Y24	Z24	X25	Y25	Z25	X26	Y26	Z26	X27	Y27	Z27	X28	Y28	Z28	X29	Y29	Z29	X30	Y30	Z30	X31	Y31	Z31	X32	Y32	Z32	X33	Y33	Z33	X34	Y34	Z34	X35	Y35	Z35	X36	Y36	Z36	X37	Y37	Z37	X38	Y38	Z38	X39	Y39	Z39	X40	Y40	Z40	X41	Y41	Z41	X42	Y42	Z42	X43	Y43	Z43	X44	Y44	Z44	X45	Y45	Z45	X46	Y46	Z46	X47	Y47	Z47	X48	Y48	Z48	X49	Y49	Z49	X50	Y50	Z50	
1001	5.0050	722.132259	1360.439951	-109.544217	732.853976	1296.759013	-450.995307	715.816758	1378.526370	-274.279778	732.885833	1247.721567	-261.395736	623.673614	1116.232438	-33.369698	726.541946	881.903295	-65.471074	591.155741	1071.566582	-548.635877	715.162010	879.892389	-456.768479	251.394731	1167.569171	-263.424234	390.824065	1120.891687	-399.257070	391.571655	1174.731682	-111.332759	420.924096	1065.545850	-367.072323	421.393735	1112.475707	-125.113651	278.918813	1207.934901	-206.569242	285.411233	1190.916279	-317.473438	358.857748	1050.958258	-48.117377	321.377752	990.359266	-416.973702	457.953292	948.089326	-52.131972	532.019406	902.804047	-65.393787	569.762668	822.857909	-68.865709	549.316795	919.486551	-93.467995	595.295286	724.721820	-95.737651	568.315185	710.229317	-191.873621	495.713416	698.213217	-64.468438	424.786342	643.896588	-74.983794	338.298849	632.338167	-70.702044	436.920392	619.911038	-103.765349	244.014045	588.365025	-67.344633	253.242997	597.635538	-143.519165	171.043553	629.848483	-100.911680	313.975794	410.061509	-135.740487	259.300017	463.277917	-62.461279	360.145950	862.403436	-416.953706	407.552903	792.504718	-408.532098	442.275400	803.529805	-399.544061	413.503727	702.239215	-400.229182	431.396702	609.537136	-386.606369	435.020585	590.906749	-292.218012	296.373039	273.265659	-413.252310	316.753681	275.705168	-345.896899	222.904412	260.588223	-376.783612	366.820964	154.370125	-432.576120	385.785203	520.027198	-414.730968	379.559294	433.797215	-411.405595	330.091324	360.055034	-413.081868	405.331632	425.662107	-381.321732	456.008354	143.658737	-363.796041	-64.779735	851.162539	-239.888871	20.897174	84.593534	-442.198314	21.124571	84.116263	-43.792742	
1002	5.0100	718.184088	1360.974071	-104.782044	736.158475	1296.366744	-445.905454	714.982665	1378.541492	-269.762180	732.771476	1247.536566	-256.416030	620.379882	1115.301240	-31.860850	725.549625	882.114819	-65.747720	595.406555	1073.026771	-548.730327	715.600049	879.546933	-457.156735	251.113387	1167.340589	-268.899245	393.795911	1118.437003	-400.571492	388.111165	1176.297364	-113.936997	422.667938	1063.088819	-367.529075	419.350682	1113.838614	-125.896565	277.143640	1206.905000	-212.261721	286.119254	1188.700463	-323.298578	355.746814	1052.620321	-50.819230	323.406655	987.702521	-419.052153	458.073180	952.862157	-53.977427	533.477610	909.330675	-66.486648	573.362147	830.502596	-68.759521	550.888086	926.268460	-94.708976	601.730411	732.229986	-95.694192	575.611309	717.502120	-192.090328	502.971720	705.064305	-64.867345	432.352828	650.406383	-74.947837	346.071449	637.963242	-70.897022	444.793518	626.123190	-103.703474	251.905192	592.686026	-67.676303	261.084099	602.187489	-143.762649	177.942816	632.989341	-100.954829	324.873482	415.865196	-135.844918	269.237861	468.162174	-62.597931	359.059622	860.428722	-417.457836	404.192670	789.279373	-408.322497	439.306105	799.393179	-397.833687	407.627131	698.789048	-399.642187	423.353095	605.998684	-385.490515	423.865340	587.390192	-290.663059	287.968640	269.922148	-413.333939	308.450935	271.701454	-346.124260	214.656660	258.423672	-376.680257	356.909930	149.869463	-432.602009	377.707207	516.651550	-414.364074	371.481103	430.493454	-410.953977	322.064702	356.779122	-413.244796	396.784546	422.403032	-380.459379	446.042439	138.022531	-363.320522	-64.827491	851.163335	-239.860445	20.907624	84.691697	-442.127365	21.106665	84.122598	-43.792236	
1003	5.0150	714.198634	1361.299295	-99.948351	739.724528	1296.099974	-441.354115	714.493349	1378.633059	-265.082500	732.282590	1247.524531	-251.465128	617.220955	1114.082746	-30.605832	725.121045	882.406473	-65.589093	599.515097	1074.509018	-548.505291	716.152722	879.386309	-457.662830	250.547911	1165.681582	-274.518545	396.875597	1116.103212	-401.726978	385.295330	1178.124478	-116.282417	424.682075	1060.608249	-367.801963	417.066507	1115.061861	-126.717748	275.335963	1205.827233	-217.906677	286.997700	1186.561553	-327.640271	352.691238	1054.245790	-53.563249	325.657895	985.423682	-421.418130	458.027069	957.645889	-55.681476	534.541428	915.912001	-67.439887	576.203912	838.187736	-68.539475	551.924399	933.241471	-95.282320	608.396670	739.966785	-95.044244	582.415023	726.242491	-193.288300	509.950918	711.999578	-64.896971	439.884249	656.566838	-74.954851	353.707304	643.288433	-71.094772	452.705079	632.300545	-103.495448	259.731528	596.514519	-68.139482	269.069832	606.198395	-144.141024	184.757637	635.544858	-101.138002	336.473483	421.603236	-136.371424	279.423291	472.717372	-62.735900	358.120514	858.954235	-418.109605	401.209378	786.649020	-408.003328	436.389974	795.756655	-396.426641	401.966494	696.171413	-399.625010	415.290756	603.042275	-384.669949	413.108407	585.219486	-289.780965	279.498753	267.235461	-413.395563	299.966936	268.346597	-346.362051	206.424102	256.899806	-376.785833	346.529397	145.845618	-432.645155	369.683747	513.875891	-414.150200	363.382518	427.748808	-410.557164	313.949411	354.019792	-413.252744	388.314818	419.819500	-379.834616	435.820347	132.885542	-362.909979	-64.865989	851.133989	-239.921771	20.889910	84.654667	-442.121775	21.116060	84.101540	-43.783967	
1004	5.0200	710.343821	1361.450143	-95.032218	742.672342	1295.988422	-435.610975	713.722672	1378.591097	-260.250723	731.759910	1247.604427	-246.264978	614.024638	1112.813491	-29.450694	724.627432	882.785698	-65.327648	603.474978	1075.984741	-547.948704	716.425905	879.298491	-457.644706	250.238294	1163.923330	-280.278007	400.022035	1113.934523	-402.728459	382.083282	1179.665797	-118.516177	426.868625	1058.250261	-367.711713	414.825809	1116.477309	-127.532121	274.622305	1205.010970	-224.897927	287.952048	1184.573316	-332.462941	349.680364	1055.953964	-56.258692	328.115721	983.484212	-423.852986	457.854830	962.402389	-57.300283	535.295134	922.339535	-68.409174	578.984330	845.744805	-68.552858	552.734739	940.012470	-95.941962	614.705496	748.288436	-94.360663	589.595814	732.657722	-191.865761	516.882555	718.896499	-64.425979	447.237517	662.487707	-74.856975	361.227922	648.164578	-71.317440	460.304264	638.300138	-103.294720	267.438657	599.693846	-68.633584	276.747067	609.712395	-144.489927	191.604040	637.289900	-101.485644	347.872097	426.949538	-136.170780	289.791710	476.716569	-62.916036	357.311680	858.003295	-418.902677	398.348188	784.596801	-408.114136	433.433766	792.722808	-395.535731	396.841954	694.196139	-400.485850	407.357143	600.718033	-384.591561	403.116299	583.096434	-289.334450	271.177962	265.087635	-413.376064	291.339716	265.679582	-346.616617	197.934115	256.081847	-376.729076	335.875832	142.531098	-432.665399	361.875379	511.635228	-414.119767	355.264233	425.479668	-410.363241	305.586478	351.995629	-413.491142	379.817533	417.627241	-379.293839	425.367045	128.577186	-362.636450	-64.875112	851.128386	-239.969101	20.855873	84.551770	-442.195796	21.082017	84.093905	-43.800069	
1005	5.0250	706.496990	1361.461033	-90.111508	745.509081	1295.852701	-429.793347	712.911016	1378.465988	-255.352694	731.247662	1247.499610	-241.401354	610.768251	1111.428882	-28.442122	724.063057	883.182856	-65.072050	607.110682	1077.557260	-547.152448	717.021652	879.244770	-457.882527	249.825202	1162.858047	-285.596415	403.189971	1111.980487	-403.586084	378.340483	1181.193676	-121.542343	428.919667	1056.128722	-367.457658	412.498840	1117.967411	-128.362391	273.483030	1203.943769	-230.022233	289.373888	1183.378316	-336.605484	346.556217	1057.585122	-58.838332	330.821804	981.869552	-426.263237	457.492392	967.020254	-58.921095	535.792502	928.554090	-69.337924	581.354591	853.140686	-68.645558	553.277793	946.832892	-96.463761	620.500159	756.564250	-93.458617	595.989781	740.041159	-193.123195	522.875057	725.477198	-64.339847	454.287511	668.193521	-74.765586	368.671432	652.335090	-71.473650	467.838122	644.047003	-102.990140	275.093182	602.357747	-69.145731	284.317940	612.456675	-144.934534	198.364756	638.114119	-101.838513	359.366355	430.957238	-136.779260	300.244031	479.873606	-63.165587	356.671448	857.508265	-419.958625	395.681803	783.137823	-408.538251	430.505940	790.468221	-395.081173	391.834540	692.588919	-401.510796	399.588418	598.937289	-384.756143	393.611755	581.854328	-289.169796	262.579001	263.757159	-413.464650	282.607311	263.739395	-346.894305	189.492858	256.001503	-376.700716	325.153511	139.958233	-432.783578	354.079349	509.963383	-414.287737	347.250583	423.886436	-410.429657	297.251976	350.497378	-413.775340	371.438765	415.864687	-379.138099	414.794620	124.981390	-362.405620	-64.897761	851.099879	-239.944372	20.863313	84.671626	-442.147513	21.057884	84.088616	-43.818429	
